<svg height="512pt" viewBox="-86 0 512 512.00003" width="512pt" xmlns="http://www.w3.org/2000/svg" xmlns:xlink="http://www.w3.org/1999/xlink"><linearGradient id="a" gradientUnits="userSpaceOnUse" x1="108.8337508696" x2="393.9428804362" y1="269.4414660502" y2="269.4414660502"><stop offset="0" stop-color="#8c6239"/><stop offset="1" stop-color="#42210b"/></linearGradient><linearGradient id="b"><stop offset="0" stop-color="#ffa981"/><stop offset=".4283" stop-color="#ff8666"/><stop offset="1" stop-color="#ff5c45"/></linearGradient><linearGradient id="c" gradientUnits="userSpaceOnUse" x1="74.4649831606" x2="170.6260534994" xlink:href="#b" y1="402.3810180746" y2="402.3810180746"/><linearGradient id="d" gradientUnits="userSpaceOnUse" x1="244.4302828592" x2="340.5914535902" xlink:href="#b" y1="402.3810180746" y2="402.3810180746"/><linearGradient id="e"><stop offset="0" stop-color="#fff465"/><stop offset="1" stop-color="#ffe600"/></linearGradient><linearGradient id="f" gradientUnits="userSpaceOnUse" x1="193.2153024214" x2="108.8733053964" xlink:href="#e" y1="402.9191202666" y2="402.9191202666"/><linearGradient id="g" gradientUnits="userSpaceOnUse" x1="93.6931012266" x2="232.5449506934" xlink:href="#b" y1="402.3813192512" y2="402.3813192512"/><linearGradient id="h" gradientUnits="userSpaceOnUse" x1="175.8505639796" x2="314.702212662" xlink:href="#b" y1="402.3813192512" y2="402.3813192512"/><linearGradient id="i" gradientUnits="userSpaceOnUse" x1="203.5764802068" x2="-122.3280237518" xlink:href="#e" y1="402.3809176824" y2="402.3809176824"/><linearGradient id="j" gradientUnits="userSpaceOnUse" x1="336.1875489528" x2="10.2822418566" xlink:href="#e" y1="402.3809176824" y2="402.3809176824"/><linearGradient id="k"><stop offset="0" stop-color="#be3f45" stop-opacity="0"/><stop offset="1" stop-color="#be3f45"/></linearGradient><linearGradient id="l" gradientUnits="userSpaceOnUse" x1="169.965774" x2="169.965774" xlink:href="#k" y1="469.765969382" y2="544.4674038332"/><linearGradient id="m"><stop offset="0" stop-color="#f8ebe1"/><stop offset="1" stop-color="#fbd1a2"/></linearGradient><linearGradient id="n" gradientUnits="userSpaceOnUse" x1="363.9900644286" x2="224.7344375334" xlink:href="#m" y1="281.1293267586" y2="160.8363809526"/><linearGradient id="o" gradientUnits="userSpaceOnUse" x1="156.2866340046" x2="157.021705693" xlink:href="#m" y1="94.2782598044" y2="198.664362697"/><linearGradient id="p" gradientUnits="userSpaceOnUse" x1="156.4215611214" x2="149.8056147492" xlink:href="#m" y1="164.4826256566" y2="267.3982839958"/><linearGradient id="q" gradientUnits="userSpaceOnUse" x1="287.9840333384" x2="173.1819385192" y1="213.8079237138" y2="99.0059292868"><stop offset="0" stop-color="#f8ebe1" stop-opacity="0"/><stop offset="1" stop-color="#fbd1a2"/></linearGradient><linearGradient id="r" gradientUnits="userSpaceOnUse" x1="167.6399026306" x2="209.1378216382" y1="88.6481047528" y2="130.1460237604"><stop offset="0" stop-color="#ff4c54"/><stop offset=".2336" stop-color="#fa4b53"/><stop offset=".496" stop-color="#ed4850"/><stop offset=".7713" stop-color="#d6444b"/><stop offset="1" stop-color="#be3f45"/></linearGradient><radialGradient id="s" cx="227.4870059932" cy="62.5404103974" gradientUnits="userSpaceOnUse" r="63.7880995658"><stop offset="0" stop-color="#be3f45"/><stop offset=".3634" stop-color="#c03f46"/><stop offset=".5718" stop-color="#c94147"/><stop offset=".7411" stop-color="#d7444b"/><stop offset=".8884" stop-color="#ea484f"/><stop offset="1" stop-color="#ff4c54"/></radialGradient><linearGradient id="t" gradientUnits="userSpaceOnUse" x1="169.9660902968" x2="169.9660902968" xlink:href="#k" y1="62.0761968646" y2="81.9497363844"/><path d="m285.273438 371.976562h-229.894532c-26.09375 0-47.25-21.152343-47.25-47.246093v-45.992188c0-61.765625 50.070313-111.832031 111.832032-111.832031h100.726562c61.765625 0 111.832031 50.066406 111.832031 111.832031v45.992188c0 26.09375-21.152343 47.246093-47.246093 47.246093zm0 0" fill="url(#a)"/><path d="m85.632812 502.277344c-9.394531-1.882813-16.882812-10.976563-18.785156-22.816406l-31.390625-171.648438c-1.390625-8.648438-8.851562-15.007812-17.613281-15.007812-11.285156 0-19.734375 10.347656-17.476562 21.40625l38.578124 165.25c2.417969 11.839843 11.929688 20.933593 23.867188 22.816406l16.089844 2.539062c30.167968 4.761719 60.617187 7.140625 91.0625 7.140625-23.960938 0-47.925782-2.378906-71.667969-7.140625zm0 0" fill="url(#c)"/><path d="m322.085938 292.804688c-8.757813 0-16.222657 6.359374-17.613282 15.007812l-31.390625 171.648438c-1.902343 11.839843-9.390625 20.933593-18.785156 22.816406l-12.664063 2.539062c-23.742187 4.761719-47.703124 7.140625-71.667968 7.140625 30.449218 0 60.894531-2.378906 91.0625-7.140625l16.089844-2.539062c11.9375-1.882813 21.449218-10.976563 23.867187-22.816406l38.578125-165.25c2.257812-11.058594-6.191406-21.40625-17.476562-21.40625zm0 0" fill="url(#d)"/><path d="m150.902344 503.3125 2.863281 2.539062c9.242187 8.199219 23.15625 8.199219 32.398437 0l2.863282-2.539062c2.125-1.882812 3.816406-10.980469 4.246094-22.820312l6.519531-155.726563c.613281-16.894531-12.917969-30.929687-29.828125-30.929687-16.90625 0-30.4375 14.035156-29.824219 30.929687l6.515625 155.726563c.429688 11.839843 2.121094 20.9375 4.246094 22.820312zm0 0" fill="url(#f)"/><path d="m150.902344 502.277344c-2.121094-1.882813-3.816406-10.976563-4.246094-22.816406l-6.726562-161.535157c-.511719-14.019531-12.023438-25.121093-26.050782-25.121093-15.417968 0-27.46875 13.308593-25.941406 28.652343l18.101562 158c1.179688 11.839844 5.824219 20.9375 11.644532 22.820313l7.851562 2.539062c14.71875 4.761719 29.574219 7.140625 44.429688 7.140625-5.417969 0-10.832032-2.378906-16.199219-7.140625zm0 0" fill="url(#g)"/><path d="m226.054688 292.804688c-14.03125 0-25.542969 11.101562-26.050782 25.121093l-6.730468 161.535157c-.429688 11.839843-2.121094 20.933593-4.246094 22.816406l-2.863282 2.539062c-5.363281 4.761719-10.78125 7.140625-16.199218 7.140625 14.855468 0 29.710937-2.378906 44.429687-7.140625l7.851563-2.539062c5.824218-1.882813 10.464844-10.976563 11.644531-22.816406l18.101563-158.003907c1.527343-15.34375-10.519532-28.652343-25.9375-28.652343zm0 0" fill="url(#h)"/><path d="m117.683594 502.277344c-5.820313-1.882813-10.464844-10.976563-11.644532-22.816406l-18.707031-164.105469c-1.277343-12.800781-12.046875-22.550781-24.910156-22.550781-15.410156 0-27.160156 13.789062-24.714844 29.003906l29.140625 157.652344c1.902344 11.839843 9.390625 20.933593 18.785156 22.816406l12.664063 2.539062c23.734375 4.757813 47.6875 7.136719 71.640625 7.140625-14.847656-.003906-29.691406-2.382812-44.402344-7.140625zm0 0" fill="url(#i)"/><path d="m277.507812 292.804688c-12.863281 0-23.632812 9.75-24.910156 22.550781l-18.707031 164.105469c-1.179687 11.839843-5.820313 20.933593-11.644531 22.816406l-7.851563 2.539062c-14.707031 4.757813-29.554687 7.136719-44.402343 7.140625 23.957031-.003906 47.910156-2.382812 71.640624-7.140625l12.664063-2.539062c9.394531-1.882813 16.882813-10.976563 18.785156-22.816406l29.140625-157.652344c2.445313-15.214844-9.304687-29.003906-24.714844-29.003906zm0 0" fill="url(#j)"/><path d="m22.148438 407.507812 16.796874 71.953126c2.417969 11.839843 11.929688 20.933593 23.867188 22.816406l16.089844 2.539062c30.160156 4.757813 60.597656 7.140625 91.039062 7.140625.007813 0 60.925782-2.382812 91.085938-7.140625l16.089844-2.539062c11.9375-1.882813 21.449218-10.976563 23.867187-22.816406l16.796875-71.953126zm0 0" fill="url(#l)"/><path d="m290.003906 37.894531s54.140625 112.609375 36.957032 207.421875c0 0-29.628907 29.628906-113.183594 14.816406-83.554688-14.816406-58.074219-24.296874-108.441406-23.109374 0 0 224.585937-54.871094 184.667968-199.128907zm0 0" fill="url(#n)"/><path d="m290.003906 37.894531s-49.257812 64.90625-164.929687 56.695313c-115.671875-8.207032-111.195313 82.835937-91.792969 108.957031 0 0 21.640625-28.359375 80.597656-28.359375 58.957032 0 173.144532-46.976562 176.125-137.292969zm0 0" fill="url(#o)"/><path d="m7.902344 269.691406s-8.785156-88.828125 96.636718-106.398437c105.421876-17.570313 167.894532-77.570313 185.464844-125.398438 0 0 40.183594 105.390625-25.828125 164.90625-53.355469 48.109375-215.277343 19.058594-256.273437 66.890625zm0 0" fill="url(#p)"/><path d="m329.914062 190.925781-108.242187-108.246093c-24.785156 8.882812-56.746094 14.738281-96.597656 11.910156-2.132813-.152344-4.210938-.257813-6.261719-.34375 1.589844 12.585937 7.78125 23.8125 16.824219 31.917968l137.472656 137.476563c38.820313-3.304687 53.847656-18.324219 53.847656-18.324219 3.226563-17.789062 3.929688-36.207031 2.957031-54.390625zm0 0" fill="url(#q)"/><path d="m221.246094 82.253906c-1.996094-18.722656-20.359375-31.378906-38.613282-26.761718-4.050781 1.023437-8.296874 1.570312-12.667968 1.570312s-8.613282-.546875-12.664063-1.570312c-18.277343-4.621094-36.640625 8.074218-38.621093 26.820312-.253907 2.417969-.339844 4.890625-.25 7.398438.972656 26.753906 22.734374 48.566406 49.484374 49.605468 29.417969 1.140625 53.625-22.367187 53.625-51.53125 0-1.871094-.101562-3.714844-.292968-5.53125zm0 0" fill="url(#r)"/><path d="m170.503906 75.15625c-4.234375 0-7.828125-3.238281-8.191406-7.527344-1.511719-17.953125 4.796875-55.09375 39.511719-67.171875 4.296875-1.492187 8.984375.777344 10.480469 5.070313 1.492187 4.292968-.777344 8.984375-5.070313 10.476562-12.894531 4.484375-21.597656 14.023438-25.871094 28.351563-3.417969 11.464843-2.65625 21.808593-2.644531 21.910156.351562 4.523437-3.015625 8.492187-7.539062 8.859375-.226563.019531-.453126.03125-.675782.03125zm0 0" fill="url(#s)"/><path d="m190.722656 66.140625c0-5.773437-9.292968-10.453125-20.757812-10.453125s-20.757813 4.679688-20.757813 10.453125 9.292969 10.453125 20.757813 10.453125 20.757812-4.679688 20.757812-10.453125zm0 0" fill="url(#t)"/></svg>